# xmcd
#
# Track frame offsets:
#	150
#	10227
#	18836
#	37297
#	53538
#	75129
#	84642
#	93638
#	103991
#	145390
#	153379
#	167849
#	183622
#	204525
#	226662
#	243992
#
# Disc length: 3370 seconds
#
# Revision: 0
# Processed by: cddbd v1.5.1PL0 Copyright (c) Steve Scherf et al.
# Submitted via: dBpowerAMP V4.0
#
DISCID=c80d2810
DTITLE=Mick Martin and the Blues Rockers - Movin' Out
DYEAR=2002
DGENRE=Blues
TTITLE0=Night Club
TTITLE1=Homework
TTITLE2=Don't You Know
TTITLE3=I'm A Fool
TTITLE4=Let Me Love You
TTITLE5=Baby Let Me Take You Home
TTITLE6=Your Mind Is On Vacation
TTITLE7=Mercury Blues
TTITLE8=Got To Move-/ Help Me
TTITLE9=Gettin' Over You
TTITLE10=Keep On Rockin' 
TTITLE11=Another Day Without You
TTITLE12=Watch Your Step
TTITLE13=Movin' Out
TTITLE14=Prisoner
TTITLE15=Gotta Get The First Plane Home
EXTD=
EXTT0=
EXTT1=
EXTT2=
EXTT3=
EXTT4=
EXTT5=
EXTT6=
EXTT7=
EXTT8=
EXTT9=
EXTT10=
EXTT11=
EXTT12=
EXTT13=
EXTT14=
EXTT15=
PLAYORDER=
